# xmcd
#
# Track frame offsets:
#  150
#  14569
#  27955
#  42082
#  55703
#  68748
#  81541
#  95073
#  108776
#  118469
#  129389
#  142706
#  154748
#  164245
#  177918
#  190829
#  202454
#  213947
#  227612
#  239512
#  252099
#  262035
#  273828
#  285733
#  295874
#  307799
#  320658
#  331039
#
# Disc length: 4752 seconds
#
# Revision: 0
# Processed by: cddbd v1.5.1PL2 Copyright (c) Steve Scherf et al.
# Submitted via: Collectorz.com_Music_Collector 6.9
#
DISCID=9f128e1c
DTITLE=Todd Rhodes and His Orchestra - Blues For The Red Boy
DYEAR=2002
DGENRE=Blues - R&B
TTITLE0=Bell Boy Boogie
TTITLE1=Flying Disc
TTITLE2=Dance Of The Red Skins
TTITLE3=Blue Sensation
TTITLE4=Jumpin' With The Mountain King
TTITLE5=Annie Laurie
TTITLE6=Bop Bop Sizzle
TTITLE7=Oh Baby
TTITLE8=I Want To Be Hqappy
TTITLE9=Make It Good
TTITLE10=I Love You Truly
TTITLE11=Blues For The Red Boy ( aka OK Blues )
TTITLE12=Fool For You
TTITLE13=Toddlin' Boogie
TTITLE14=Sweetheart, Please Come Back To Me
TTITLE15=Prelude In C Sharp Minor
TTITLE16=Anitra's Jump
TTITLE17=I'm Just A Fool In Love
TTITLE18=It Ain't Right
TTITLE19=Sportree's Jump
TTITLE20=She Don't Love Me Any More
TTITLE21=Todd's Idea
TTITLE22=It Couldn't Be True
TTITLE23=Oo-Wee Walkie Talkie
TTITLE24=Comin' Home
TTITLE25=That Ain't Right
TTITLE26=That's The Guy For Me
TTITLE27=Rhapsody In Blue Parts 1 and 2
EXTD=
EXTT0=
EXTT1=
EXTT2=
EXTT3=
EXTT4=
EXTT5=
EXTT6=
EXTT7=
EXTT8=
EXTT9=
EXTT10=
EXTT11=
EXTT12=
EXTT13=
EXTT14=
EXTT15=
EXTT16=
EXTT17=
EXTT18=
EXTT19=
EXTT20=
EXTT21=
EXTT22=
EXTT23=
EXTT24=
EXTT25=
EXTT26=
EXTT27=
PLAYORDER=
